<?xml version="1.0" standalone="no"?>
<!DOCTYPE svg PUBLIC "-//W3C//DTD SVG 20010904//EN"
 "http://www.w3.org/TR/2001/REC-SVG-20010904/DTD/svg10.dtd">
<svg version="1.0" xmlns="http://www.w3.org/2000/svg"
 width="600.000000pt" height="592.000000pt" viewBox="0 0 600.000000 592.000000"
 preserveAspectRatio="xMidYMid meet">
<metadata>
Created by potrace 1.15, written by Peter Selinger 2001-2017
</metadata>
<g transform="translate(0.000000,592.000000) scale(0.100000,-0.100000)"
fill="#000000" stroke="none">
<path d="M3935 5890 c-86 -26 -131 -47 -206 -95 -257 -166 -472 -506 -588
-930 -64 -236 -90 -419 -98 -691 -6 -225 4 -384 37 -584 34 -203 45 -239 88
-284 101 -105 319 -420 464 -672 97 -167 232 -437 304 -606 31 -73 64 -142 73
-152 62 -72 308 -225 488 -303 722 -312 1470 -195 1492 235 4 87 -9 144 -55
235 -145 290 -570 578 -1035 702 l-66 17 53 102 c196 374 284 803 271 1310
-10 380 -76 699 -207 1006 -133 309 -365 578 -580 672 -138 61 -311 76 -435
38z"/>
<path d="M676 4239 c-182 -19 -369 -92 -474 -185 -87 -77 -155 -193 -182 -314
-15 -68 -12 -246 5 -320 104 -445 446 -900 967 -1286 405 -300 913 -522 1314
-575 49 -6 95 -13 101 -15 9 -2 4 -24 -17 -72 -74 -174 -124 -380 -142 -583
-34 -396 94 -730 322 -842 60 -30 72 -32 170 -32 91 0 114 4 168 27 110 46
173 90 282 198 165 162 288 367 375 623 75 221 115 504 97 683 l-9 91 -84 119
c-313 441 -605 1025 -715 1432 -16 59 -22 68 -130 171 -440 424 -1017 739
-1549 846 -164 33 -371 47 -499 34z"/>
</g>
</svg>
